<?xml version="1.0" encoding="utf-8"?>
<!-- Generator: Adobe Illustrator 27.5.0, SVG Export Plug-In . SVG Version: 6.00 Build 0)  -->
<svg version="1.1" id="Layer_1" xmlns="http://www.w3.org/2000/svg" xmlns:xlink="http://www.w3.org/1999/xlink" x="0px" y="0px"
	 viewBox="0 0 1920 630" style="enable-background:new 0 0 1920 630;" xml:space="preserve">
<style type="text/css">
	.st0{fill:#E0E0E0;}
	.st1{fill:#FFFFFF;}
</style>
<g id="Group_4" transform="translate(-1739 1849)">
	<g id="Group_3" transform="translate(2062 -840)">
		<rect id="Rectangle_1" x="-323" y="-1009" class="st0" width="1920" height="630"/>
	</g>
	<path id="Union_2" class="st1" d="M2663.9-1455.5h-73.1c-4.4,0-8-3.6-8-8c0-1.8,0.6-3.6,1.7-5l44.5-55.9c2.8-3.5,7.8-4,11.2-1.3
		c0.5,0.4,0.9,0.8,1.3,1.3l30.2,37.9l57.4-72.6c2.7-3.5,7.8-4.1,11.2-1.3c0.5,0.4,0.9,0.8,1.3,1.3l71.6,90.6
		c2.7,3.5,2.2,8.5-1.3,11.2c-1.4,1.1-3.2,1.7-5,1.7h-143V-1455.5z M2616.2-1589.7c0-12.6,10.2-22.8,22.8-22.8s22.8,10.2,22.8,22.8
		s-10.2,22.8-22.8,22.8l0,0C2626.4-1567,2616.2-1577.1,2616.2-1589.7L2616.2-1589.7L2616.2-1589.7z"/>
</g>
</svg>
